<mxfile host="app.diagrams.net" modified="2023-03-06T02:13:50.183Z" agent="5.0 (Macintosh; Intel Mac OS X 10_15_7) AppleWebKit/537.36 (KHTML, like Gecko) Chrome/110.0.0.0 Safari/537.36" etag="Jk0TSsuU_NsI2jImdMgq" version="20.8.23" type="github">
  <diagram name="fuse" id="KLwmJqCOrgyW5cvfnb96">
    <mxGraphModel dx="1195" dy="724" grid="1" gridSize="10" guides="1" tooltips="1" connect="1" arrows="1" fold="1" page="1" pageScale="1" pageWidth="827" pageHeight="1169" math="0" shadow="0">
      <root>
        <mxCell id="0" />
        <mxCell id="1" parent="0" />
        <mxCell id="QILzxQemzmio92u9ncoP-23" value="" style="group" vertex="1" connectable="0" parent="1">
          <mxGeometry x="40" y="40" width="520" height="420" as="geometry" />
        </mxCell>
        <mxCell id="QILzxQemzmio92u9ncoP-8" value="" style="rounded=0;whiteSpace=wrap;html=1;fillColor=#A9C4EB;strokeColor=none;" vertex="1" parent="QILzxQemzmio92u9ncoP-23">
          <mxGeometry y="210" width="520" height="210" as="geometry" />
        </mxCell>
        <mxCell id="QILzxQemzmio92u9ncoP-6" value="" style="rounded=0;whiteSpace=wrap;html=1;fillColor=#9AC7BF;strokeColor=none;" vertex="1" parent="QILzxQemzmio92u9ncoP-23">
          <mxGeometry width="520" height="210" as="geometry" />
        </mxCell>
        <mxCell id="QILzxQemzmio92u9ncoP-2" value="" style="rounded=1;whiteSpace=wrap;html=1;dashed=1;" vertex="1" parent="QILzxQemzmio92u9ncoP-23">
          <mxGeometry x="80" y="80" width="160" height="110" as="geometry" />
        </mxCell>
        <mxCell id="QILzxQemzmio92u9ncoP-3" value="ls -l /mnt/fuse" style="rounded=1;whiteSpace=wrap;html=1;" vertex="1" parent="QILzxQemzmio92u9ncoP-23">
          <mxGeometry x="90" y="90" width="140" height="40" as="geometry" />
        </mxCell>
        <mxCell id="QILzxQemzmio92u9ncoP-4" value="glibc" style="rounded=1;whiteSpace=wrap;html=1;fillColor=#ffe6cc;strokeColor=#d79b00;" vertex="1" parent="QILzxQemzmio92u9ncoP-23">
          <mxGeometry x="90" y="140" width="140" height="40" as="geometry" />
        </mxCell>
        <mxCell id="QILzxQemzmio92u9ncoP-7" value="" style="endArrow=none;html=1;rounded=0;exitX=0;exitY=1;exitDx=0;exitDy=0;entryX=1;entryY=1;entryDx=0;entryDy=0;strokeWidth=3;fillColor=#e1d5e7;strokeColor=#000000;" edge="1" parent="QILzxQemzmio92u9ncoP-23" source="QILzxQemzmio92u9ncoP-6" target="QILzxQemzmio92u9ncoP-6">
          <mxGeometry width="50" height="50" relative="1" as="geometry">
            <mxPoint x="420" y="290" as="sourcePoint" />
            <mxPoint x="470" y="240" as="targetPoint" />
          </mxGeometry>
        </mxCell>
        <mxCell id="QILzxQemzmio92u9ncoP-9" value="VFS" style="rounded=1;whiteSpace=wrap;html=1;dashed=1;" vertex="1" parent="QILzxQemzmio92u9ncoP-23">
          <mxGeometry x="80" y="230" width="160" height="140" as="geometry" />
        </mxCell>
        <mxCell id="QILzxQemzmio92u9ncoP-10" value="" style="rounded=1;whiteSpace=wrap;html=1;dashed=1;" vertex="1" parent="QILzxQemzmio92u9ncoP-23">
          <mxGeometry x="290" y="20" width="160" height="170" as="geometry" />
        </mxCell>
        <mxCell id="QILzxQemzmio92u9ncoP-11" value="glibc" style="rounded=1;whiteSpace=wrap;html=1;fillColor=#ffe6cc;strokeColor=#d79b00;" vertex="1" parent="QILzxQemzmio92u9ncoP-23">
          <mxGeometry x="300" y="140" width="140" height="40" as="geometry" />
        </mxCell>
        <mxCell id="QILzxQemzmio92u9ncoP-12" value="libfuse" style="rounded=1;whiteSpace=wrap;html=1;fillColor=#fff2cc;strokeColor=#d6b656;" vertex="1" parent="QILzxQemzmio92u9ncoP-23">
          <mxGeometry x="300" y="85" width="140" height="40" as="geometry" />
        </mxCell>
        <mxCell id="QILzxQemzmio92u9ncoP-13" value="./hellofs /mnt/fuse" style="rounded=1;whiteSpace=wrap;html=1;" vertex="1" parent="QILzxQemzmio92u9ncoP-23">
          <mxGeometry x="300" y="30" width="140" height="40" as="geometry" />
        </mxCell>
        <mxCell id="QILzxQemzmio92u9ncoP-18" style="edgeStyle=orthogonalEdgeStyle;rounded=0;orthogonalLoop=1;jettySize=auto;html=1;entryX=0.143;entryY=1;entryDx=0;entryDy=0;entryPerimeter=0;strokeWidth=1;exitX=0.14;exitY=0.003;exitDx=0;exitDy=0;exitPerimeter=0;" edge="1" parent="QILzxQemzmio92u9ncoP-23" source="QILzxQemzmio92u9ncoP-14" target="QILzxQemzmio92u9ncoP-13">
          <mxGeometry relative="1" as="geometry" />
        </mxCell>
        <mxCell id="QILzxQemzmio92u9ncoP-20" style="edgeStyle=orthogonalEdgeStyle;rounded=0;orthogonalLoop=1;jettySize=auto;html=1;entryX=0.75;entryY=1;entryDx=0;entryDy=0;strokeWidth=1;" edge="1" parent="QILzxQemzmio92u9ncoP-23" source="QILzxQemzmio92u9ncoP-14" target="QILzxQemzmio92u9ncoP-3">
          <mxGeometry relative="1" as="geometry" />
        </mxCell>
        <mxCell id="QILzxQemzmio92u9ncoP-14" value="FUSE" style="rounded=1;whiteSpace=wrap;html=1;fillColor=#fff2cc;strokeColor=#d6b656;" vertex="1" parent="QILzxQemzmio92u9ncoP-23">
          <mxGeometry x="300" y="230" width="140" height="40" as="geometry" />
        </mxCell>
        <mxCell id="QILzxQemzmio92u9ncoP-15" value="ext4" style="rounded=1;whiteSpace=wrap;html=1;" vertex="1" parent="QILzxQemzmio92u9ncoP-23">
          <mxGeometry x="300" y="280" width="140" height="40" as="geometry" />
        </mxCell>
        <mxCell id="QILzxQemzmio92u9ncoP-16" value=". . ." style="rounded=1;whiteSpace=wrap;html=1;" vertex="1" parent="QILzxQemzmio92u9ncoP-23">
          <mxGeometry x="300" y="330" width="140" height="40" as="geometry" />
        </mxCell>
        <mxCell id="QILzxQemzmio92u9ncoP-19" style="edgeStyle=orthogonalEdgeStyle;rounded=0;orthogonalLoop=1;jettySize=auto;html=1;entryX=0.25;entryY=0;entryDx=0;entryDy=0;strokeWidth=1;exitX=0.25;exitY=1;exitDx=0;exitDy=0;" edge="1" parent="QILzxQemzmio92u9ncoP-23" source="QILzxQemzmio92u9ncoP-13" target="QILzxQemzmio92u9ncoP-14">
          <mxGeometry relative="1" as="geometry" />
        </mxCell>
        <mxCell id="QILzxQemzmio92u9ncoP-17" value="" style="edgeStyle=elbowEdgeStyle;elbow=horizontal;endArrow=classic;html=1;curved=0;rounded=0;endSize=8;startSize=8;strokeWidth=1;exitX=0.86;exitY=1.023;exitDx=0;exitDy=0;exitPerimeter=0;entryX=0;entryY=0.25;entryDx=0;entryDy=0;" edge="1" parent="QILzxQemzmio92u9ncoP-23" source="QILzxQemzmio92u9ncoP-3" target="QILzxQemzmio92u9ncoP-14">
          <mxGeometry width="50" height="50" relative="1" as="geometry">
            <mxPoint x="420" y="290" as="sourcePoint" />
            <mxPoint x="470" y="240" as="targetPoint" />
            <Array as="points">
              <mxPoint x="210" y="270" />
              <mxPoint x="210" y="240" />
              <mxPoint x="210" y="220" />
            </Array>
          </mxGeometry>
        </mxCell>
        <mxCell id="QILzxQemzmio92u9ncoP-21" value="用户态" style="text;html=1;align=center;verticalAlign=middle;resizable=0;points=[];autosize=1;strokeColor=none;fillColor=none;" vertex="1" parent="QILzxQemzmio92u9ncoP-23">
          <mxGeometry y="160" width="60" height="30" as="geometry" />
        </mxCell>
        <mxCell id="QILzxQemzmio92u9ncoP-22" value="内核态" style="text;html=1;align=center;verticalAlign=middle;resizable=0;points=[];autosize=1;strokeColor=none;fillColor=none;" vertex="1" parent="QILzxQemzmio92u9ncoP-23">
          <mxGeometry y="230" width="60" height="30" as="geometry" />
        </mxCell>
      </root>
    </mxGraphModel>
  </diagram>
</mxfile>
